<svg width="196" height="24" viewBox="0 0 196 24" fill="none" xmlns="http://www.w3.org/2000/svg">
<path fill-rule="evenodd" clip-rule="evenodd" d="M93.272 22.544C94.712 22.544 95.972 22.306 97.052 21.83C98.132 21.354 98.974 20.664 99.578 19.76C100.182 18.856 100.484 17.772 100.484 16.508C100.484 15.644 100.342 14.9 100.058 14.276C99.774 13.652 99.364 13.106 98.828 12.638C98.292 12.17 97.648 11.744 96.896 11.36C96.144 10.976 95.304 10.588 94.376 10.196C93.944 10.02 93.548 9.854 93.188 9.698C92.828 9.542 92.52 9.378 92.264 9.206C92.008 9.034 91.81 8.83 91.67 8.594C91.53 8.358 91.46 8.072 91.46 7.736C91.46 7.328 91.566 6.958 91.778 6.626C91.99 6.294 92.294 6.028 92.69 5.828C93.086 5.628 93.568 5.528 94.136 5.528C94.64 5.528 95.138 5.6 95.63 5.744C96.122 5.888 96.586 6.078 97.022 6.314C97.458 6.55 97.848 6.816 98.192 7.112L99.812 4.064C99.38 3.696 98.852 3.356 98.228 3.044C97.604 2.732 96.932 2.48 96.212 2.288C95.492 2.096 94.772 2 94.052 2C93.092 2 92.222 2.16 91.442 2.48C90.662 2.8 89.99 3.232 89.426 3.776C88.862 4.32 88.428 4.94 88.124 5.636C87.82 6.332 87.668 7.06 87.668 7.82C87.668 8.46 87.778 9.038 87.998 9.554C88.218 10.07 88.516 10.532 88.892 10.94C89.268 11.348 89.698 11.706 90.182 12.014C90.666 12.322 91.176 12.596 91.712 12.836C92.432 13.148 93.074 13.434 93.638 13.694C94.202 13.954 94.678 14.218 95.066 14.486C95.454 14.754 95.748 15.054 95.948 15.386C96.148 15.718 96.248 16.12 96.248 16.592C96.248 17.112 96.124 17.546 95.876 17.894C95.628 18.242 95.29 18.504 94.862 18.68C94.434 18.856 93.94 18.944 93.38 18.944C92.78 18.944 92.214 18.858 91.682 18.686C91.15 18.514 90.656 18.298 90.2 18.038C89.744 17.778 89.332 17.504 88.964 17.216C88.596 16.928 88.28 16.668 88.016 16.436L86.024 19.652C86.28 19.9 86.628 20.188 87.068 20.516C87.508 20.844 88.034 21.162 88.646 21.47C89.258 21.778 89.952 22.034 90.728 22.238C91.504 22.442 92.352 22.544 93.272 22.544ZM48.436 22.16C49.844 22.16 51.154 21.91 52.366 21.41C53.578 20.91 54.638 20.21 55.546 19.31C56.454 18.41 57.16 17.362 57.664 16.166C58.168 14.97 58.42 13.672 58.42 12.272C58.42 10.88 58.166 9.584 57.658 8.384C57.15 7.184 56.442 6.132 55.534 5.228C54.626 4.324 53.568 3.62 52.36 3.116C51.152 2.612 49.844 2.36 48.436 2.36H43V22.16H48.436ZM48.004 18.68H46.888V5.84H48.004C48.9 5.84 49.728 6 50.488 6.32C51.248 6.64 51.908 7.09 52.468 7.67C53.028 8.25 53.464 8.93 53.776 9.71C54.088 10.49 54.244 11.34 54.244 12.26C54.244 13.188 54.088 14.042 53.776 14.822C53.464 15.602 53.028 16.28 52.468 16.856C51.908 17.432 51.248 17.88 50.488 18.2C49.728 18.52 48.9 18.68 48.004 18.68ZM78.36 18.752V22.16H67.344V2.36H78.36V5.768H71.232V10.532H78.072V13.94H71.232V18.752H78.36ZM109.468 2.36H113.356V22.16H109.468V2.36ZM132.048 22.544C133.216 22.544 134.344 22.346 135.432 21.95C136.52 21.554 137.496 20.994 138.36 20.27C139.224 19.546 139.906 18.686 140.406 17.69C140.906 16.694 141.156 15.592 141.156 14.384V11.384H132V14.396H137.196V14.696C137.196 15.312 137.06 15.88 136.788 16.4C136.516 16.92 136.148 17.372 135.684 17.756C135.22 18.14 134.69 18.438 134.094 18.65C133.498 18.862 132.88 18.968 132.24 18.968C131.44 18.968 130.694 18.804 130.002 18.476C129.31 18.148 128.706 17.68 128.19 17.072C127.674 16.464 127.272 15.74 126.984 14.9C126.696 14.06 126.552 13.124 126.552 12.092C126.552 11.148 126.68 10.274 126.936 9.47C127.192 8.666 127.568 7.964 128.064 7.364C128.56 6.764 129.17 6.298 129.894 5.966C130.618 5.634 131.452 5.468 132.396 5.468C133.356 5.468 134.33 5.646 135.318 6.002C136.306 6.358 137.148 6.86 137.844 7.508L139.668 4.496C139.02 3.96 138.292 3.506 137.484 3.134C136.676 2.762 135.834 2.48 134.958 2.288C134.082 2.096 133.212 2 132.348 2C130.82 2 129.44 2.27 128.208 2.81C126.976 3.35 125.924 4.094 125.052 5.042C124.18 5.99 123.512 7.082 123.048 8.318C122.584 9.554 122.352 10.868 122.352 12.26C122.352 13.716 122.6 15.068 123.096 16.316C123.592 17.564 124.28 18.654 125.16 19.586C126.04 20.518 127.068 21.244 128.244 21.764C129.42 22.284 130.688 22.544 132.048 22.544ZM153.968 8.84V22.16H150.08V2.36H153.968L162.5 15.68V2.36H166.388V22.16H162.5L153.968 8.84ZM185.332 22.544C186.716 22.544 188.012 22.28 189.22 21.752C190.428 21.224 191.488 20.49 192.4 19.55C193.312 18.61 194.026 17.518 194.542 16.274C195.058 15.03 195.316 13.696 195.316 12.272C195.316 10.848 195.058 9.514 194.542 8.27C194.026 7.026 193.312 5.934 192.4 4.994C191.488 4.054 190.428 3.32 189.22 2.792C188.012 2.264 186.716 2 185.332 2C183.948 2 182.652 2.264 181.444 2.792C180.236 3.32 179.176 4.054 178.264 4.994C177.352 5.934 176.638 7.026 176.122 8.27C175.606 9.514 175.348 10.848 175.348 12.272C175.348 13.696 175.606 15.03 176.122 16.274C176.638 17.518 177.352 18.61 178.264 19.55C179.176 20.49 180.236 21.224 181.444 21.752C182.652 22.28 183.948 22.544 185.332 22.544ZM183.01 18.32C183.718 18.64 184.488 18.8 185.32 18.8C186.168 18.8 186.944 18.64 187.648 18.32C188.352 18 188.964 17.548 189.484 16.964C190.004 16.38 190.408 15.69 190.696 14.894C190.984 14.098 191.128 13.224 191.128 12.272C191.128 11.32 190.984 10.446 190.696 9.65C190.408 8.854 190.004 8.164 189.484 7.58C188.964 6.996 188.352 6.544 187.648 6.224C186.944 5.904 186.168 5.744 185.32 5.744C184.488 5.744 183.718 5.904 183.01 6.224C182.302 6.544 181.688 6.996 181.168 7.58C180.648 8.164 180.246 8.854 179.962 9.65C179.678 10.446 179.536 11.32 179.536 12.272C179.536 13.224 179.678 14.098 179.962 14.894C180.246 15.69 180.648 16.38 181.168 16.964C181.688 17.548 182.302 18 183.01 18.32Z" fill="#333136"/>
<circle r="12" transform="matrix(0 -1 -1 0 12 12)" fill="url(#paint0_angular)"/>
<defs>
<radialGradient id="paint0_angular" cx="0" cy="0" r="1" gradientUnits="userSpaceOnUse" gradientTransform="translate(12 12) scale(12)">
<stop stop-color="#E7816B" stop-opacity="0.01"/>
<stop offset="0.999287" stop-color="#E7816B"/>
</radialGradient>
</defs>
</svg>
